M48
; DRILL file {KiCad (7.0.0)} date Wed Aug  2 14:23:06 2023
; FORMAT={-:-/ absolute / inch / decimal}
; #@! TF.CreationDate,2023-08-02T14:23:06-04:00
; #@! TF.GenerationSoftware,Kicad,Pcbnew,(7.0.0)
; #@! TF.FileFunction,Plated,1,2,PTH
FMAT,2
INCH
; #@! TA.AperFunction,Plated,PTH,ViaDrill
T1C0.0157
; #@! TA.AperFunction,Plated,PTH,ComponentDrill
T2C0.0197
; #@! TA.AperFunction,Plated,PTH,ComponentDrill
T3C0.0276
; #@! TA.AperFunction,Plated,PTH,ComponentDrill
T4C0.0295
; #@! TA.AperFunction,Plated,PTH,ComponentDrill
T5C0.0315
; #@! TA.AperFunction,Plated,PTH,ComponentDrill
T6C0.0394
; #@! TA.AperFunction,Plated,PTH,ComponentDrill
T7C0.0433
%
G90
G05
T1
X1.7276Y-2.3764
X2.0437Y-3.8752
X2.0457Y-3.9484
X2.1843Y-3.8846
X2.2039Y-3.4153
X2.2984Y-3.4291
X2.3118Y-3.4969
X2.4008Y-3.4622
X2.4606Y-3.472
X2.5583Y-4.7854
X2.6173Y-3.1524
X2.6768Y-4.2437
X2.6776Y-3.3465
X2.7512Y-3.3986
X2.765Y-2.9882
X2.7744Y-2.6315
X2.7744Y-2.8567
X2.898Y-2.8587
X2.9004Y-4.6319
X2.9358Y-3.1551
X2.9524Y-2.9465
X3.174Y-3.2874
X3.2205Y-4.3331
X3.3535Y-2.2697
X3.5209Y-3.8236
X3.5524Y-3.4197
T3
X0.8843Y-2.49
X0.8843Y-2.69
X1.4396Y-1.455
X1.4396Y-1.655
X1.4396Y-1.7538
X1.4396Y-1.9538
X1.6193Y-2.7487
X1.6193Y-3.6713
X1.6193Y-4.575
X1.653Y-2.6674
X1.653Y-2.83
X1.653Y-3.59
X1.653Y-3.7526
X1.653Y-4.4937
X1.653Y-4.6563
X1.7343Y-2.6337
X1.7343Y-2.8637
X1.7343Y-3.5563
X1.7343Y-3.7863
X1.7343Y-4.46
X1.7343Y-4.69
X1.8155Y-2.6674
X1.8155Y-2.83
X1.8155Y-3.59
X1.8155Y-3.7526
X1.8155Y-4.4937
X1.8155Y-4.6563
X1.8492Y-2.7487
X1.8492Y-3.6713
X1.8492Y-4.575
X2.0093Y-2.9204
X2.0093Y-3.07
X2.0111Y-2.755
X2.0126Y-2.5976
X2.0143Y-2.145
X2.2093Y-2.9204
X2.2093Y-3.07
X2.2111Y-2.755
X2.2126Y-2.5976
X2.2143Y-2.145
X2.3543Y-2.75
X2.3543Y-2.95
X2.3543Y-3.065
X2.3543Y-3.265
X2.3785Y-2.6028
X2.4425Y-4.6709
X2.4425Y-4.8709
X2.5785Y-2.6028
X2.6738Y-2.7602
X2.6754Y-2.6028
X2.8738Y-2.7602
X2.8754Y-2.6028
X2.9703Y-1.964
X2.9743Y-2.165
X3.0297Y-2.8358
X3.0297Y-3.0358
X3.0297Y-3.1492
X3.0297Y-3.3492
X3.0297Y-3.4657
X3.0297Y-3.6657
X3.0297Y-3.7807
X3.0297Y-3.9807
X3.1703Y-1.964
X3.1743Y-2.165
X3.1872Y-3.1508
X3.1872Y-3.3508
X3.1872Y-3.4476
X3.1872Y-3.6476
X3.2893Y-2.161
X3.315Y-4.395
X3.315Y-4.595
X3.3447Y-3.6264
X3.4628Y-2.839
X3.4628Y-3.039
X3.4893Y-2.161
X3.515Y-4.395
X3.515Y-4.595
X3.5447Y-3.6264
T4
X1.6493Y-4.11
X1.6493Y-4.16
X1.6493Y-4.21
X1.654Y-2.265
X1.654Y-2.315
X1.654Y-2.365
X1.6594Y-3.205
X1.6594Y-3.255
X1.6594Y-3.305
X1.8143Y-2.265
X1.8143Y-2.315
X1.8143Y-2.365
X1.8193Y-4.11
X1.8193Y-4.16
X1.8193Y-4.21
X1.8247Y-3.205
X1.8247Y-3.255
X1.8247Y-3.305
X3.2069Y-2.9177
X3.2569Y-2.9177
X3.3069Y-2.9177
T5
X0.9269Y-4.1028
X1.0269Y-4.1028
X1.1269Y-4.1028
X1.2269Y-4.1028
X1.4593Y-2.6666
X1.4593Y-2.8634
X1.4593Y-3.1616
X1.4593Y-3.3584
X1.4593Y-3.5716
X1.4593Y-3.7684
X1.4593Y-4.4616
X1.4593Y-4.6584
X1.5843Y-2.475
X1.5843Y-4.0
X1.5843Y-4.32
X1.5847Y-3.095
X1.5893Y-2.155
X1.5897Y-3.4139
X1.5993Y-1.65
X1.5993Y-1.75
X1.5993Y-1.85
X1.5993Y-1.95
X1.8843Y-2.475
X1.8843Y-4.0
X1.8843Y-4.32
X1.8847Y-3.095
X1.8893Y-2.155
X1.8897Y-3.4139
X1.8993Y-1.65
X1.8993Y-1.75
X1.8993Y-1.85
X1.8993Y-1.95
X2.0893Y-1.905
X2.0899Y-1.6822
X2.1143Y-2.3016
X2.1143Y-2.4
X2.1293Y-4.0004
X2.1293Y-4.1004
X2.1293Y-4.2004
X2.1293Y-4.3004
X2.1293Y-4.4004
X2.1293Y-4.5004
X2.1293Y-4.6004
X2.1293Y-4.7004
X2.1877Y-1.905
X2.1899Y-1.6822
X2.2899Y-1.6822
X2.3543Y-4.0416
X2.3543Y-4.2384
X2.3543Y-4.3766
X2.3543Y-4.5734
X2.5179Y-1.5004
X2.5179Y-1.5988
X2.5179Y-1.7366
X2.5179Y-1.835
X2.5329Y-3.2429
X2.5329Y-3.3429
X2.5329Y-3.4429
X2.5329Y-3.5429
X2.5329Y-3.6429
X2.5329Y-3.7429
X2.5329Y-3.8429
X2.5376Y-4.0894
X2.5376Y-4.1894
X2.5376Y-4.2894
X2.5376Y-4.3894
X2.5376Y-4.4894
X2.5376Y-4.5894
X2.5376Y-4.6894
X2.6743Y-2.9374
X2.6743Y-3.0358
X2.8329Y-3.2429
X2.8329Y-3.3429
X2.8329Y-3.4429
X2.8329Y-3.5429
X2.8329Y-3.6429
X2.8329Y-3.7429
X2.8329Y-3.8429
X2.8376Y-4.0894
X2.8376Y-4.1894
X2.8376Y-4.2894
X2.8376Y-4.3894
X2.8376Y-4.4894
X2.8376Y-4.5894
X2.8376Y-4.6894
X2.9787Y-4.2169
X3.0772Y-4.2169
X3.2973Y-1.978
X3.3841Y-3.865
X3.3841Y-4.065
X3.3893Y-2.445
X3.3893Y-2.645
X3.4037Y-3.2917
X3.4841Y-3.965
X3.4893Y-2.545
X3.4941Y-1.978
X3.5022Y-3.2917
T6
X1.0127Y-4.2957
X1.0403Y-2.0427
X1.0403Y-3.1425
X1.1111Y-4.2957
X1.1387Y-2.0427
X1.1387Y-3.1425
X1.2096Y-4.2957
X1.2371Y-2.0427
X1.2371Y-3.1425
X2.468Y-2.0565
X2.5664Y-2.0565
X2.6649Y-2.0565
X2.6787Y-4.8016
X2.7772Y-4.8016
X2.8756Y-4.8016
X2.9733Y-1.547
X2.9733Y-1.647
X3.0733Y-1.547
X3.0733Y-1.647
X3.1733Y-1.547
X3.1733Y-1.647
X3.2733Y-1.547
X3.2733Y-1.647
X3.3733Y-1.547
X3.3733Y-1.647
T2
G00X1.0718Y-4.9074
M15
G01X1.1505Y-4.9074
M16
G05
G00X1.0718Y-5.2263
M15
G01X1.1505Y-5.2263
M16
G05
G00X1.0993Y-1.5437
M15
G01X1.1781Y-1.5437
M16
G05
G00X1.0993Y-1.8626
M15
G01X1.1781Y-1.8626
M16
G05
G00X1.0993Y-2.6618
M15
G01X1.1781Y-2.6618
M16
G05
G00X1.0993Y-2.9807
M15
G01X1.1781Y-2.9807
M16
G05
G00X1.6243Y-4.9074
M15
G01X1.7031Y-4.9074
M16
G05
G00X1.6243Y-5.2263
M15
G01X1.7031Y-5.2263
M16
G05
G00X2.1769Y-4.9074
M15
G01X2.2557Y-4.9074
M16
G05
G00X2.1769Y-5.2263
M15
G01X2.2557Y-5.2263
M16
G05
G00X3.3006Y-4.9074
M15
G01X3.3794Y-4.9074
M16
G05
G00X3.3006Y-5.2263
M15
G01X3.3794Y-5.2263
M16
G05
T6
G00X0.9261Y-5.1495
M15
G01X0.9261Y-5.0905
M16
G05
G00X0.9536Y-1.7858
M15
G01X0.9536Y-1.7268
M16
G05
G00X0.9536Y-2.9039
M15
G01X0.9536Y-2.8449
M16
G05
G00X1.2962Y-5.1357
M15
G01X1.2962Y-5.1043
M16
G05
G00X1.3237Y-1.772
M15
G01X1.3237Y-1.7406
M16
G05
G00X1.3237Y-2.8902
M15
G01X1.3237Y-2.8587
M16
G05
G00X1.4787Y-5.1495
M15
G01X1.4787Y-5.0905
M16
G05
G00X1.8488Y-5.1357
M15
G01X1.8488Y-5.1043
M16
G05
G00X2.0313Y-5.1495
M15
G01X2.0313Y-5.0905
M16
G05
G00X2.4014Y-5.1357
M15
G01X2.4014Y-5.1043
M16
G05
G00X3.155Y-5.1495
M15
G01X3.155Y-5.0905
M16
G05
G00X3.525Y-5.1357
M15
G01X3.525Y-5.1043
M16
G05
T7
G00X0.9221Y-4.5772
M15
G01X0.9221Y-4.6047
M16
G05
G00X0.9497Y-2.3242
M15
G01X0.9497Y-2.3518
M16
G05
G00X0.9497Y-3.424
M15
G01X0.9497Y-3.4516
M16
G05
G00X1.3001Y-4.5772
M15
G01X1.3001Y-4.6047
M16
G05
G00X1.3277Y-2.3242
M15
G01X1.3277Y-2.3518
M16
G05
G00X1.3277Y-3.424
M15
G01X1.3277Y-3.4516
M16
G05
G00X2.3775Y-2.338
M15
G01X2.3775Y-2.3656
M16
G05
G00X2.5882Y-5.0831
M15
G01X2.5882Y-5.1106
M16
G05
G00X2.7554Y-2.338
M15
G01X2.7554Y-2.3656
M16
G05
G00X2.9661Y-5.0831
M15
G01X2.9661Y-5.1106
M16
G05
T0
M30
