%TF.GenerationSoftware,KiCad,Pcbnew,(7.0.0)*%
%TF.CreationDate,2023-08-02T14:23:00-04:00*%
%TF.ProjectId,Goom,476f6f6d-2e6b-4696-9361-645f70636258,rev?*%
%TF.SameCoordinates,Original*%
%TF.FileFunction,Soldermask,Top*%
%TF.FilePolarity,Negative*%
%FSLAX46Y46*%
G04 Gerber Fmt 4.6, Leading zero omitted, Abs format (unit mm)*
G04 Created by KiCad (PCBNEW (7.0.0)) date 2023-08-02 14:23:00*
%MOMM*%
%LPD*%
G01*
G04 APERTURE LIST*
G04 Aperture macros list*
%AMRoundRect*
0 Rectangle with rounded corners*
0 $1 Rounding radius*
0 $2 $3 $4 $5 $6 $7 $8 $9 X,Y pos of 4 corners*
0 Add a 4 corners polygon primitive as box body*
4,1,4,$2,$3,$4,$5,$6,$7,$8,$9,$2,$3,0*
0 Add four circle primitives for the rounded corners*
1,1,$1+$1,$2,$3*
1,1,$1+$1,$4,$5*
1,1,$1+$1,$6,$7*
1,1,$1+$1,$8,$9*
0 Add four rect primitives between the rounded corners*
20,1,$1+$1,$2,$3,$4,$5,0*
20,1,$1+$1,$4,$5,$6,$7,0*
20,1,$1+$1,$6,$7,$8,$9,0*
20,1,$1+$1,$8,$9,$2,$3,0*%
G04 Aperture macros list end*
%ADD10O,3.000000X4.500000*%
%ADD11O,3.000000X3.800000*%
%ADD12O,4.000000X2.000000*%
%ADD13C,1.600000*%
%ADD14R,1.600000X1.600000*%
%ADD15O,2.720000X3.240000*%
%ADD16R,1.800000X1.800000*%
%ADD17C,1.800000*%
%ADD18O,1.600000X1.600000*%
%ADD19O,1.400000X1.400000*%
%ADD20C,1.400000*%
%ADD21R,1.500000X1.050000*%
%ADD22O,1.500000X1.050000*%
%ADD23C,1.440000*%
%ADD24O,1.600000X1.200000*%
%ADD25O,1.200000X1.200000*%
%ADD26RoundRect,0.250000X0.600000X-0.600000X0.600000X0.600000X-0.600000X0.600000X-0.600000X-0.600000X0*%
%ADD27C,1.700000*%
%ADD28R,1.050000X1.500000*%
%ADD29O,1.050000X1.500000*%
G04 APERTURE END LIST*
D10*
%TO.C,J6*%
X80135999Y-130047999D03*
D11*
X89535999Y-130047999D03*
D12*
X84835999Y-124647999D03*
X84835999Y-132747999D03*
%TD*%
D13*
%TO.C,C11*%
X53703000Y-58460000D03*
D14*
X53702999Y-60959999D03*
%TD*%
D15*
%TO.C,RV5*%
X75339999Y-129459999D03*
X65739999Y-129459999D03*
D16*
X73039999Y-121959999D03*
D17*
X70540000Y-121960000D03*
X68040000Y-121960000D03*
%TD*%
D15*
%TO.C,RV1*%
X33722599Y-59384999D03*
X24122599Y-59384999D03*
D16*
X31422599Y-51884999D03*
D17*
X28922600Y-51885000D03*
X26422600Y-51885000D03*
%TD*%
D10*
%TO.C,J1*%
X24222599Y-44609999D03*
D11*
X33622599Y-44609999D03*
D12*
X28922599Y-39209999D03*
X28922599Y-47309999D03*
%TD*%
D15*
%TO.C,RV2*%
X33722599Y-87319999D03*
X24122599Y-87319999D03*
D16*
X31422599Y-79819999D03*
D17*
X28922600Y-79820000D03*
X26422600Y-79820000D03*
%TD*%
D15*
%TO.C,RV3*%
X33022599Y-116609999D03*
X23422599Y-116609999D03*
D16*
X30722599Y-109109999D03*
D17*
X28222600Y-109110000D03*
X25722600Y-109110000D03*
%TD*%
D10*
%TO.C,J5*%
X51594299Y-130047999D03*
D11*
X60994299Y-130047999D03*
D12*
X56294299Y-124647999D03*
X56294299Y-132747999D03*
%TD*%
D10*
%TO.C,J4*%
X37558449Y-130047999D03*
D11*
X46958449Y-130047999D03*
D12*
X42258449Y-124647999D03*
X42258449Y-132747999D03*
%TD*%
D15*
%TO.C,RV4*%
X69987599Y-59734999D03*
X60387599Y-59734999D03*
D16*
X67687599Y-52234999D03*
D17*
X65187600Y-52235000D03*
X62687600Y-52235000D03*
%TD*%
D10*
%TO.C,J3*%
X23522599Y-130047999D03*
D11*
X32922599Y-130047999D03*
D12*
X28222599Y-124647999D03*
X28222599Y-132747999D03*
%TD*%
D10*
%TO.C,J2*%
X24222599Y-73009999D03*
D11*
X33622599Y-73009999D03*
D12*
X28922599Y-67609999D03*
X28922599Y-75709999D03*
%TD*%
D13*
%TO.C,C13*%
X83751200Y-50241200D03*
X88751200Y-50241200D03*
%TD*%
D14*
%TO.C,U2*%
X64454999Y-119109999D03*
D18*
X64454999Y-116569999D03*
X64454999Y-114029999D03*
X64454999Y-111489999D03*
X64454999Y-108949999D03*
X64454999Y-106409999D03*
X64454999Y-103869999D03*
X72074999Y-103869999D03*
X72074999Y-106409999D03*
X72074999Y-108949999D03*
X72074999Y-111489999D03*
X72074999Y-114029999D03*
X72074999Y-116569999D03*
X72074999Y-119109999D03*
%TD*%
D19*
%TO.C,R23*%
X76954999Y-79989999D03*
D20*
X76955000Y-85070000D03*
%TD*%
D21*
%TO.C,Q3*%
X46209999Y-106933999D03*
D22*
X46209999Y-105663999D03*
X46209999Y-104393999D03*
%TD*%
D14*
%TO.C,C12*%
X63954999Y-40609999D03*
D13*
X63955000Y-38110000D03*
%TD*%
D20*
%TO.C,R14*%
X87955000Y-72110000D03*
D19*
X87954999Y-77189999D03*
%TD*%
%TO.C,R9*%
X80954999Y-85109999D03*
D20*
X80955000Y-80030000D03*
%TD*%
%TO.C,R7*%
X22461000Y-68326000D03*
D19*
X22460999Y-63245999D03*
%TD*%
D14*
%TO.C,D3*%
X47871261Y-78612999D03*
D18*
X40251261Y-78612999D03*
%TD*%
D14*
%TO.C,U3*%
X64334999Y-97609999D03*
D18*
X64334999Y-95069999D03*
X64334999Y-92529999D03*
X64334999Y-89989999D03*
X64334999Y-87449999D03*
X64334999Y-84909999D03*
X64334999Y-82369999D03*
X71954999Y-82369999D03*
X71954999Y-84909999D03*
X71954999Y-87449999D03*
X71954999Y-89989999D03*
X71954999Y-92529999D03*
X71954999Y-95069999D03*
X71954999Y-97609999D03*
%TD*%
D14*
%TO.C,U1*%
X48241999Y-41909999D03*
D18*
X48241999Y-44449999D03*
X48241999Y-46989999D03*
X48241999Y-49529999D03*
X40621999Y-49529999D03*
X40621999Y-46989999D03*
X40621999Y-44449999D03*
X40621999Y-41909999D03*
%TD*%
D20*
%TO.C,R29*%
X84201000Y-116713000D03*
D19*
X89280999Y-116712999D03*
%TD*%
D14*
%TO.C,RN1*%
X31162599Y-104209999D03*
D18*
X28622599Y-104209999D03*
X26082599Y-104209999D03*
X23542599Y-104209999D03*
%TD*%
D14*
%TO.C,D6*%
X40240999Y-62864999D03*
D18*
X47860999Y-62864999D03*
%TD*%
D13*
%TO.C,C2*%
X55568000Y-48387000D03*
X53068000Y-48387000D03*
%TD*%
D21*
%TO.C,Q7*%
X46082999Y-60070999D03*
D22*
X46082999Y-58800999D03*
X46082999Y-57530999D03*
%TD*%
D14*
%TO.C,C10*%
X78160112Y-107109999D03*
D13*
X75660113Y-107110000D03*
%TD*%
D20*
%TO.C,R6*%
X36566000Y-49626000D03*
D19*
X36565999Y-44545999D03*
%TD*%
D21*
%TO.C,Q2*%
X41891999Y-104393999D03*
D22*
X41891999Y-105663999D03*
X41891999Y-106933999D03*
%TD*%
D20*
%TO.C,R10*%
X56116000Y-77978000D03*
D19*
X51035999Y-77977999D03*
%TD*%
D20*
%TO.C,R34*%
X80525400Y-49885600D03*
D19*
X75445399Y-49885599D03*
%TD*%
D20*
%TO.C,R13*%
X51163000Y-54483000D03*
D19*
X56242999Y-54482999D03*
%TD*%
D21*
%TO.C,Q5*%
X46347261Y-83946999D03*
D22*
X46347261Y-82676999D03*
X46347261Y-81406999D03*
%TD*%
D20*
%TO.C,R2*%
X84955000Y-92110000D03*
D19*
X90034999Y-92109999D03*
%TD*%
D20*
%TO.C,R33*%
X80627800Y-54991000D03*
D19*
X75547799Y-54990999D03*
%TD*%
D23*
%TO.C,T2*%
X86088000Y-62103000D03*
X88628000Y-64643000D03*
X86088000Y-67183000D03*
%TD*%
D24*
%TO.C,U4*%
X46969999Y-116204999D03*
D25*
X46114751Y-118269751D03*
X44049999Y-119124999D03*
X41985247Y-118269751D03*
X41129999Y-116204999D03*
X41985247Y-114140247D03*
X44049999Y-113284999D03*
X46114751Y-114140247D03*
%TD*%
D20*
%TO.C,R31*%
X51081000Y-69978000D03*
D19*
X56160999Y-69977999D03*
%TD*%
D20*
%TO.C,R12*%
X73035000Y-66110000D03*
D19*
X67954999Y-66109999D03*
%TD*%
D20*
%TO.C,R26*%
X65495000Y-66110000D03*
D19*
X60414999Y-66109999D03*
%TD*%
D20*
%TO.C,R22*%
X72995000Y-70110000D03*
D19*
X67914999Y-70109999D03*
%TD*%
D13*
%TO.C,C7*%
X37066000Y-72731000D03*
X37066000Y-67731000D03*
%TD*%
D14*
%TO.C,C1*%
X88954999Y-83609999D03*
D13*
X86455000Y-83610000D03*
%TD*%
D20*
%TO.C,R25*%
X59799000Y-69850000D03*
D19*
X59798999Y-74929999D03*
%TD*%
D24*
%TO.C,U5*%
X46969999Y-93250751D03*
D25*
X46114751Y-95315503D03*
X44049999Y-96170751D03*
X41985247Y-95315503D03*
X41129999Y-93250751D03*
X41985247Y-91185999D03*
X44049999Y-90330751D03*
X46114751Y-91185999D03*
%TD*%
D13*
%TO.C,C4*%
X37066000Y-118324000D03*
X37066000Y-113324000D03*
%TD*%
D20*
%TO.C,R16*%
X59799000Y-77850000D03*
D19*
X59798999Y-82929999D03*
%TD*%
D14*
%TO.C,RN2*%
X54083999Y-119389999D03*
D18*
X54083999Y-116849999D03*
X54083999Y-114309999D03*
X54083999Y-111769999D03*
X54083999Y-109229999D03*
X54083999Y-106689999D03*
X54083999Y-104149999D03*
X54083999Y-101609999D03*
%TD*%
D20*
%TO.C,R28*%
X80955000Y-87570000D03*
D19*
X80954999Y-92649999D03*
%TD*%
D20*
%TO.C,R30*%
X56201000Y-65978000D03*
D19*
X51120999Y-65977999D03*
%TD*%
D26*
%TO.C,J9*%
X85681600Y-41833800D03*
D27*
X85681600Y-39293800D03*
X83141600Y-41833800D03*
X83141600Y-39293800D03*
X80601600Y-41833800D03*
X80601600Y-39293800D03*
X78061600Y-41833800D03*
X78061600Y-39293800D03*
X75521600Y-41833800D03*
X75521600Y-39293800D03*
%TD*%
D14*
%TO.C,D2*%
X40240999Y-109727999D03*
D18*
X47860999Y-109727999D03*
%TD*%
D28*
%TO.C,Q1*%
X83994999Y-74109999D03*
D29*
X82724999Y-74109999D03*
X81454999Y-74109999D03*
%TD*%
D23*
%TO.C,T3*%
X85955000Y-98171000D03*
X88495000Y-100711000D03*
X85955000Y-103251000D03*
%TD*%
D24*
%TO.C,U6*%
X46969999Y-69817247D03*
D25*
X46114751Y-71881999D03*
X44049999Y-72737247D03*
X41985247Y-71881999D03*
X41129999Y-69817247D03*
X41985247Y-67752495D03*
X44049999Y-66897247D03*
X46114751Y-67752495D03*
%TD*%
D13*
%TO.C,C5*%
X37066000Y-95718000D03*
X37066000Y-90718000D03*
%TD*%
D21*
%TO.C,Q6*%
X42010737Y-57530999D03*
D22*
X42010737Y-58800999D03*
X42010737Y-60070999D03*
%TD*%
D20*
%TO.C,R5*%
X76955000Y-72030000D03*
D19*
X76954999Y-77109999D03*
%TD*%
D20*
%TO.C,R32*%
X56116000Y-74178000D03*
D19*
X51035999Y-74177999D03*
%TD*%
D14*
%TO.C,D4*%
X40378261Y-86711999D03*
D18*
X47998261Y-86711999D03*
%TD*%
D13*
%TO.C,C8*%
X59799000Y-116165000D03*
X59799000Y-111165000D03*
%TD*%
D14*
%TO.C,C14*%
X63954999Y-46609999D03*
D13*
X63955000Y-44110000D03*
%TD*%
D21*
%TO.C,Q4*%
X42147999Y-81406999D03*
D22*
X42147999Y-82676999D03*
X42147999Y-83946999D03*
%TD*%
D23*
%TO.C,T1*%
X53083000Y-42727000D03*
X55623000Y-42727000D03*
X58163000Y-42727000D03*
%TD*%
D20*
%TO.C,R1*%
X83548000Y-54889400D03*
D19*
X88627999Y-54889399D03*
%TD*%
D14*
%TO.C,C3*%
X67926999Y-74609999D03*
D13*
X67927000Y-77110000D03*
%TD*%
D14*
%TO.C,D5*%
X47987999Y-54736999D03*
D18*
X40367999Y-54736999D03*
%TD*%
D14*
%TO.C,D1*%
X47860999Y-101599999D03*
D18*
X40240999Y-101599999D03*
%TD*%
D13*
%TO.C,C9*%
X59799000Y-107656000D03*
X59799000Y-102656000D03*
%TD*%
D20*
%TO.C,R8*%
X36566000Y-36957000D03*
D19*
X36565999Y-42036999D03*
%TD*%
D20*
%TO.C,R24*%
X76955000Y-88030000D03*
D19*
X76954999Y-93109999D03*
%TD*%
D20*
%TO.C,R21*%
X84201000Y-111633000D03*
D19*
X89280999Y-111632999D03*
%TD*%
D20*
%TO.C,R27*%
X76955000Y-101110000D03*
D19*
X76954999Y-96029999D03*
%TD*%
D20*
%TO.C,R11*%
X62040000Y-118640000D03*
D19*
X62039999Y-123719999D03*
%TD*%
D13*
%TO.C,C6*%
X37066000Y-85304000D03*
X37066000Y-80304000D03*
%TD*%
M02*
